<svg width="214" height="80" viewBox="0 0 214 80" fill="none" xmlns="http://www.w3.org/2000/svg">
<path d="M80.7403 55.2941H69.8031L53.3702 38.8068L58.8116 33.3654L53.479 27.8152L58.8116 22.3738H69.8031L58.8116 33.3654L80.7403 55.2941Z" fill="#FAC371"/>
<path d="M58.8116 33.3654L53.3702 38.8068L69.8031 55.2941H80.7403L58.8116 33.3654ZM58.8116 33.3654L53.479 27.8152L58.8116 22.3738H69.8031L58.8116 33.3654Z" stroke="#FAC371" stroke-width="0.361609"/>
<path d="M26 22.3195H36.9372L53.3701 38.8069L47.9287 44.2483L53.2613 49.7985L47.9287 55.2398H36.9372L47.9287 44.2483L26 22.3195Z" fill="black"/>
<path d="M47.9287 44.2483L53.3701 38.8069L36.9372 22.3195H26L47.9287 44.2483ZM47.9287 44.2483L53.2613 49.7985L47.9287 55.2398H36.9372L47.9287 44.2483Z" stroke="black" stroke-width="0.361609"/>
<path d="M105.23 38.4421C106.7 39.4996 107.835 40.8407 108.635 42.4655C109.46 44.0646 109.872 45.7926 109.872 47.6495V55H105.269V47.6495C105.269 46.7469 105.101 45.8829 104.766 45.0575C104.431 44.2064 103.941 43.4585 103.296 42.8137C101.877 41.4726 100.265 40.802 98.4599 40.802C97.5315 40.802 96.6546 40.9826 95.8293 41.3436C95.0039 41.6789 94.2689 42.169 93.6241 42.8137C92.9793 43.4585 92.4764 44.1935 92.1153 45.0189C91.7801 45.8442 91.6124 46.7211 91.6124 47.6495V55H87.0087V47.6495C87.0087 45.8184 87.4214 44.1033 88.2467 42.5042C89.072 40.8794 90.2197 39.5254 91.6898 38.4421C90.2197 37.3589 89.072 36.0178 88.2467 34.4187C87.4214 32.7939 87.0087 31.0659 87.0087 29.2347V21.1492H91.6124V29.2347C91.6124 30.1374 91.7801 31.0143 92.1153 31.8654C92.4764 32.6907 92.9793 33.4258 93.6241 34.0706C94.2689 34.7153 95.0039 35.2054 95.8293 35.5406C96.6546 35.8759 97.5315 36.0436 98.4599 36.0436C100.291 36.0436 101.903 35.3859 103.296 34.0706C104.611 32.6778 105.269 31.0659 105.269 29.2347V21.1492H109.872V29.2347C109.872 31.0917 109.46 32.8326 108.635 34.4574C107.835 36.0565 106.7 37.3847 105.23 38.4421ZM137.281 32.1749V55H125.637C123.625 54.9484 121.755 54.4068 120.027 53.3752C118.325 52.3435 116.971 50.9637 115.965 49.2357C114.959 47.4819 114.456 45.5992 114.456 43.5875C114.456 41.5242 114.959 39.6156 115.965 37.8618C116.997 36.1081 118.389 34.7153 120.143 33.6837C121.897 32.6778 123.805 32.1749 125.869 32.1749C127.133 32.1749 128.345 32.3683 129.505 32.7552C130.692 33.1421 131.762 33.6966 132.716 34.4187V32.1749H137.281ZM132.716 43.5875C132.716 42.6848 132.536 41.8208 132.175 40.9955C131.839 40.1444 131.349 39.3964 130.705 38.7516C130.06 38.1069 129.312 37.6168 128.461 37.2815C127.635 36.9205 126.771 36.7399 125.869 36.7399C124.063 36.7399 122.451 37.4105 121.033 38.7516C120.388 39.3964 119.898 40.1444 119.563 40.9955C119.228 41.8208 119.06 42.6848 119.06 43.5875C119.06 45.4186 119.718 47.0306 121.033 48.4233C122.426 49.7386 124.038 50.3963 125.869 50.3963H132.716V43.5875ZM142.292 32.1749H146.896V43.5488C146.896 44.4772 147.064 45.3541 147.399 46.1795C147.76 47.0048 148.263 47.7398 148.908 48.3846C149.553 49.0294 150.288 49.5323 151.113 49.8934C151.938 50.2287 152.815 50.3963 153.744 50.3963H160.475V32.1749H165.079V55H153.744C151.655 55 149.733 54.4971 147.979 53.4912C146.226 52.4596 144.846 51.0669 143.84 49.3131C142.808 47.5851 142.292 45.6636 142.292 43.5488V32.1749ZM187.234 36.7399H181.469C179.664 36.7399 178.052 37.4105 176.633 38.7516C175.989 39.3964 175.499 40.1444 175.163 40.9955C174.828 41.8208 174.66 42.6848 174.66 43.5875V55H170.057V43.3167C170.108 41.3049 170.65 39.448 171.682 37.7458C172.713 36.0178 174.093 34.6509 175.821 33.645C177.575 32.6649 179.458 32.1749 181.469 32.1749H187.234V36.7399Z" fill="black"/>
</svg>
